<?xml version="1.0" encoding="UTF-8"?>
<svg version="1.1" xmlns="http://www.w3.org/2000/svg" width="61" height="61">
<path d="M0 0 C6.54908715 1.05044764 10.56757728 5.57562465 15.44921875 9.83203125 C16.21363281 10.47011719 16.97804688 11.10820312 17.765625 11.765625 C18.44898926 12.36262207 19.13235352 12.95961914 19.83642578 13.57470703 C21.95618116 14.92805597 21.95618116 14.92805597 24.48901367 13.97241211 C26.65608415 12.7905499 28.51339853 11.61696402 30.42578125 10.06640625 C31.03228516 9.58107422 31.63878906 9.09574219 32.26367188 8.59570312 C32.88048828 8.09232422 33.49730469 7.58894531 34.1328125 7.0703125 C41.95083211 0.75976744 41.95083211 0.75976744 45.8828125 0.2578125 C48.9453125 0.6328125 48.9453125 0.6328125 50.61401367 2.46679688 C52.59360005 7.17453137 52.35379459 11.60730247 52.30859375 16.6640625 C52.30934151 18.26707214 52.30934151 18.26707214 52.31010437 19.90246582 C52.30776732 22.15846621 52.29806065 24.41446938 52.28149414 26.67041016 C52.25789771 30.12035479 52.26093688 33.56952638 52.26757812 37.01953125 C52.26200117 39.21354627 52.25489119 41.40755803 52.24609375 43.6015625 C52.24700516 44.63188599 52.24791656 45.66220947 52.24885559 46.72375488 C52.23932358 47.68825562 52.22979156 48.65275635 52.2199707 49.64648438 C52.21536331 50.49078003 52.21075592 51.33507568 52.20600891 52.20495605 C51.87841716 55.25580641 51.17748612 58.40063888 48.9453125 60.6328125 C43.86757143 61.17114035 41.54070438 60.11659441 37.5703125 57.0078125 C36.62800781 56.28335938 35.68570313 55.55890625 34.71484375 54.8125 C33.80089844 54.09320313 32.88695312 53.37390625 31.9453125 52.6328125 C30.38560281 51.4624181 28.8234708 50.29523731 27.2578125 49.1328125 C26.15300339 48.30033109 25.04856076 47.46736133 23.9453125 46.6328125 C20.22046112 48.28929689 17.18046829 50.60755015 13.9453125 53.0703125 C12.9140625 53.85277344 11.8828125 54.63523438 10.8203125 55.44140625 C9.12568451 56.7330996 7.44454078 58.04344531 5.796875 59.39453125 C2.85877132 61.35946557 0.36362818 61.01262535 -3.0546875 60.6328125 C-5.27232505 57.30635618 -5.30694055 56.25875306 -5.31347656 52.3828125 C-5.31978088 51.31160156 -5.32608521 50.24039063 -5.33258057 49.13671875 C-5.3285321 47.98042969 -5.32448364 46.82414062 -5.3203125 45.6328125 C-5.32222595 44.44558594 -5.3241394 43.25835937 -5.32611084 42.03515625 C-5.32747268 39.52343535 -5.32377636 37.01170741 -5.31542969 34.5 C-5.30473046 30.64827717 -5.31532536 26.79702077 -5.328125 22.9453125 C-5.32680341 20.50781147 -5.32424101 18.07031073 -5.3203125 15.6328125 C-5.32436096 14.47652344 -5.32840942 13.32023438 -5.33258057 12.12890625 C-5.32627625 11.05769531 -5.31997192 9.98648437 -5.31347656 8.8828125 C-5.31188538 7.93921875 -5.31029419 6.995625 -5.30865479 6.0234375 C-4.88905807 2.07372251 -3.87752596 0.80327264 0 0 Z " fill="#EF3A1C" transform="translate(8.0546875,-0.6328125)"/>
<path d="M0 0 C3.54840208 -0.69159939 5.9463593 -0.59969777 9.12841797 1.21142578 C11.47517011 2.9146217 13.70951139 4.7067829 15.9375 6.5625 C16.69740234 7.17158203 17.45730469 7.78066406 18.24023438 8.40820312 C22.68927036 11.99858657 27.01214405 15.72134997 31.28173828 19.52270508 C32.76963743 20.80194318 34.34766421 21.97490602 35.9375 23.125 C38 25 38 25 39 30 C30.42 30 21.84 30 13 30 C15.61010904 34.35018173 17.47316031 36.58054208 21.1875 39.8125 C22.08855469 40.60269531 22.98960938 41.39289062 23.91796875 42.20703125 C24.60503906 42.79871094 25.29210937 43.39039063 26 44 C22.24280932 47.87770434 18.31516111 51.40856218 14.125 54.8125 C13.24521484 55.56563477 13.24521484 55.56563477 12.34765625 56.33398438 C9.12043602 58.94058533 7.40639863 59.94556419 3.1796875 60.51171875 C2.13039063 60.34285156 1.08109375 60.17398438 0 60 C-2.21763755 56.67354368 -2.25225305 55.62594056 -2.25878906 51.75 C-2.26509338 50.67878906 -2.27139771 49.60757813 -2.27789307 48.50390625 C-2.2738446 47.34761719 -2.26979614 46.19132812 -2.265625 45 C-2.26753845 43.81277344 -2.2694519 42.62554687 -2.27142334 41.40234375 C-2.27278518 38.89062285 -2.26908886 36.37889491 -2.26074219 33.8671875 C-2.25004296 30.01546467 -2.26063786 26.16420827 -2.2734375 22.3125 C-2.27211591 19.87499897 -2.26955351 17.43749823 -2.265625 15 C-2.26967346 13.84371094 -2.27372192 12.68742188 -2.27789307 11.49609375 C-2.27158875 10.42488281 -2.26528442 9.35367187 -2.25878906 8.25 C-2.25719788 7.30640625 -2.25560669 6.3628125 -2.25396729 5.390625 C-2 3 -2 3 0 0 Z " fill="#00186F" transform="translate(5,0)"/>
<path d="M0 0 C2.84364944 3.65612071 3.36321142 6.39125752 3.29296875 10.95703125 C3.28330078 12.06884766 3.27363281 13.18066406 3.26367188 14.32617188 C3.23853516 15.47666016 3.21339844 16.62714844 3.1875 17.8125 C3.16719727 19.56723633 3.16719727 19.56723633 3.14648438 21.35742188 C3.11120612 24.23847904 3.05740143 27.1192987 3 30 C-2.28 30 -7.56 30 -13 30 C-13.99 28.02 -14.98 26.04 -16 24 C-18.4380831 21.61848297 -18.4380831 21.61848297 -21.1875 19.625 C-22.08855469 18.93664062 -22.98960938 18.24828125 -23.91796875 17.5390625 C-24.60503906 17.03117187 -25.29210937 16.52328125 -26 16 C-22.3498353 12.1923235 -18.51564577 8.92972976 -14.3125 5.75 C-13.73177734 5.30398437 -13.15105469 4.85796875 -12.55273438 4.3984375 C-8.12143105 1.01732745 -5.69815936 -0.6977338 0 0 Z " fill="#F7A11C" transform="translate(57,0)"/>
<path d="M0 0 C2.43934225 -0.13501894 4.87124104 -0.23403897 7.3125 -0.3125 C8.34793945 -0.3753418 8.34793945 -0.3753418 9.40429688 -0.43945312 C11.42578125 -0.48828125 11.42578125 -0.48828125 15 0 C16.65625 2.21875 16.65625 2.21875 18 5 C19.6757362 6.65990248 21.40812516 8.2642128 23.1875 9.8125 C24.08855469 10.60269531 24.98960938 11.39289062 25.91796875 12.20703125 C26.60503906 12.79871094 27.29210937 13.39039063 28 14 C24.24280932 17.87770434 20.31516111 21.40856218 16.125 24.8125 C15.24521484 25.56563477 15.24521484 25.56563477 14.34765625 26.33398438 C11.12043602 28.94058533 9.40639863 29.94556419 5.1796875 30.51171875 C4.13039063 30.34285156 3.08109375 30.17398438 2 30 C-0.36008817 26.45986775 -0.23463644 24.98878045 -0.1953125 20.80078125 C-0.18886719 19.59228516 -0.18242188 18.38378906 -0.17578125 17.13867188 C-0.15064453 15.2447168 -0.15064453 15.2447168 -0.125 13.3125 C-0.11597656 12.03826172 -0.10695312 10.76402344 -0.09765625 9.45117188 C-0.07405641 6.30059373 -0.04113194 3.15039017 0 0 Z " fill="#019E9E" transform="translate(3,30)"/>
</svg>
